<?xml version="1.0" standalone="no"?>
<!DOCTYPE svg PUBLIC "-//W3C//DTD SVG 20010904//EN"
 "http://www.w3.org/TR/2001/REC-SVG-20010904/DTD/svg10.dtd">
<svg version="1.0" xmlns="http://www.w3.org/2000/svg"
 width="781.000000pt" height="1086.000000pt" viewBox="0 0 781.000000 1086.000000"
 preserveAspectRatio="xMidYMid meet">
<metadata>
Created by potrace 1.16, written by Peter Selinger 2001-2019
</metadata>
<g transform="translate(0.000000,1086.000000) scale(0.100000,-0.100000)"
fill="#000000" stroke="none">
<path d="M1495 9540 c-439 -93 -779 -419 -903 -867 l-27 -98 -3 -3175 c-2
-2228 0 -3200 8 -3258 34 -260 162 -507 359 -695 193 -183 425 -290 691 -317
83 -8 558 -10 1725 -8 1600 4 1611 4 1695 25 121 30 173 49 276 98 300 145
529 426 622 765 25 93 26 103 30 477 l3 382 -68 4 c-37 3 42 3 177 1 383 -4
720 -54 1082 -160 65 -19 133 -34 153 -34 41 0 99 26 90 41 -4 5 -1 8 5 7 7
-2 22 10 33 25 l22 28 0 1629 0 1629 -21 28 c-11 15 -36 38 -54 51 -31 21 -42
22 -231 22 l-199 0 0 194 c0 207 -5 233 -48 280 -43 45 -81 56 -242 66 -221
14 -427 -2 -705 -53 -11 -2 -14 -2 -7 0 10 4 12 194 10 981 l-3 977 -28 100
c-74 265 -241 505 -465 664 -136 98 -272 156 -444 191 -93 19 -143 20 -1770
19 -1600 0 -1677 -1 -1763 -19z m3422 -291 c319 -43 599 -276 702 -585 16 -49
35 -127 40 -174 7 -54 11 -423 11 -1020 l0 -935 -70 -29 c-124 -51 -380 -210
-380 -237 0 -5 -6 -9 -14 -9 -7 0 -58 -47 -113 -103 l-100 -104 -89 92 c-135
139 -248 224 -414 312 -311 164 -758 249 -1173 223 -168 -11 -219 -27 -258
-81 -23 -33 -24 -40 -27 -246 l-3 -212 -207 -3 c-198 -3 -208 -4 -240 -26 -18
-13 -40 -38 -50 -55 -16 -30 -17 -133 -17 -1642 0 -1556 1 -1611 19 -1648 11
-23 35 -47 62 -63 56 -33 96 -30 264 20 353 105 814 165 1185 153 337 -11 617
-67 843 -169 85 -37 123 -36 235 11 139 58 261 92 435 122 126 21 143 23 125
11 -8 -5 -12 -102 -15 -337 -4 -275 -7 -342 -22 -405 -66 -271 -240 -484 -488
-599 -177 -82 -12 -75 -1843 -79 -1169 -2 -1652 0 -1709 8 -340 49 -626 309
-712 647 l-24 96 0 3161 c0 3140 0 3162 20 3246 42 175 159 362 293 468 123
98 284 170 427 191 86 13 3213 13 3307 0z m-1128 -2914 c306 -44 560 -146 769
-309 34 -27 62 -53 62 -59 0 -5 7 -6 16 -3 8 3 13 2 10 -2 -3 -5 5 -19 17 -33
34 -37 131 -160 150 -191 16 -26 17 -113 17 -1220 0 -655 -2 -1193 -4 -1196
-3 -2 -17 8 -33 22 -61 57 -244 173 -358 227 -276 131 -585 198 -921 200
l-154 1 0 1296 0 1295 163 -7 c89 -3 209 -13 266 -21z m2841 -1269 l0 -1294
-144 -1 c-287 -1 -589 -55 -816 -146 -157 -63 -433 -224 -447 -261 -3 -8 -8
-12 -12 -9 -4 2 -14 -5 -21 -16 -8 -10 -18 -19 -22 -19 -14 0 -10 2388 4 2413
25 49 105 146 179 219 211 208 542 351 894 387 173 18 174 18 283 19 l102 2 0
-1294z m-3600 -378 l0 -1133 23 -40 c15 -27 37 -47 68 -63 44 -22 49 -22 185
-12 372 29 775 -46 1050 -195 45 -24 85 -42 88 -39 3 2 4 1 1 -3 -3 -3 3 -12
13 -19 22 -17 20 -17 -118 1 -134 17 -529 32 -556 20 -11 -4 -41 -7 -69 -6
-113 4 -457 -45 -710 -100 -77 -17 -144 -32 -150 -32 -10 -2 -20 2714 -10
2741 3 8 32 12 95 12 l90 0 0 -1132z m4110 -247 l0 -1380 -32 10 c-127 36
-495 100 -698 121 -181 18 -594 15 -754 -6 -71 -9 -131 -15 -133 -12 -14 14
191 120 318 164 236 83 573 124 838 102 94 -7 143 -8 165 0 41 13 101 74 91
91 -5 7 -4 10 2 6 6 -4 13 7 17 24 3 18 6 533 6 1145 l0 1114 90 0 90 0 0
-1379z"/>
<path d="M2704 8980 c-12 -4 -31 -21 -43 -36 -18 -23 -21 -40 -21 -135 0 -120
10 -153 51 -175 43 -22 1107 -21 1150 1 41 22 49 50 49 171 0 121 -12 156 -61
173 -39 13 -1092 14 -1125 1z"/>
<path d="M2439 2181 c-29 -29 -29 -31 -29 -146 0 -116 7 -148 39 -172 12 -10
204 -12 819 -13 l803 0 24 25 c24 23 25 30 25 150 0 126 0 127 -29 156 l-29
29 -797 0 -797 0 -29 -29z"/>
</g>
</svg>
